<svg width="900" height="900" viewBox="0 0 900 900" xmlns="http://www.w3.org/2000/svg">
  <defs>
    <radialGradient id="fabricBlack" cx="50%" cy="35%" r="70%">
      <stop offset="0%" stop-color="#252525"/>
      <stop offset="45%" stop-color="#090909"/>
      <stop offset="100%" stop-color="#000000"/>
    </radialGradient>
    <filter id="softShadow" x="-30%" y="-30%" width="160%" height="160%">
      <feDropShadow dx="0" dy="30" stdDeviation="30" flood-color="#000000" flood-opacity="0.45"/>
    </filter>
    <filter id="fabricNoise">
      <feTurbulence type="fractalNoise" baseFrequency="0.9" numOctaves="3" stitchTiles="stitch"/>
      <feColorMatrix type="saturate" values="0"/>
      <feComponentTransfer>
        <feFuncA type="table" tableValues="0 0.11"/>
      </feComponentTransfer>
      <feBlend mode="screen" in2="SourceGraphic"/>
    </filter>
  </defs>

  <g filter="url(#softShadow)">
    <path d="M288 132 C330 92 360 76 402 78 L498 78 C540 76 570 92 612 132 L755 256 L678 356 L620 308 L620 765 L280 765 L280 308 L222 356 L145 256 Z"
      fill="url(#fabricBlack)" stroke="#202020" stroke-width="7"/>
    <path d="M385 82 C405 123 495 123 515 82" fill="none" stroke="#111" stroke-width="14" stroke-linecap="round"/>
    <path d="M310 155 C390 205 510 205 590 155" fill="none" stroke="#333" stroke-width="5" opacity="0.6"/>
    <path d="M292 230 C330 310 335 610 308 742" fill="none" stroke="#1e1e1e" stroke-width="10" opacity="0.55"/>
    <path d="M608 230 C570 310 565 610 592 742" fill="none" stroke="#000" stroke-width="10" opacity="0.55"/>
    <path d="M280 760 L620 760" stroke="#1f1f1f" stroke-width="8"/>
    <path d="M145 256 L222 356" stroke="#1b1b1b" stroke-width="7"/>
    <path d="M755 256 L678 356" stroke="#1b1b1b" stroke-width="7"/>
    <path d="M288 132 C330 92 360 76 402 78 L498 78 C540 76 570 92 612 132 L755 256 L678 356 L620 308 L620 765 L280 765 L280 308 L222 356 L145 256 Z"
      fill="transparent" filter="url(#fabricNoise)" opacity="0.55"/>
  </g>
</svg>
